<svg width="26" height="39" viewBox="0 0 26 39" fill="none" xmlns="http://www.w3.org/2000/svg">
<g clip-path="url(#clip0_10_480)">
<path d="M24.4573 19.5077C23.1668 21.928 21.1682 23.8809 18.7381 25.096C18.7652 25.3271 18.779 25.5595 18.7794 25.7922C18.741 27.3199 18.1171 28.7719 17.0406 29.8387C15.9641 30.9054 14.5202 31.5024 13.0169 31.5024C11.5136 31.5024 10.0698 30.9054 8.99329 29.8387C7.91679 28.7719 7.29282 27.3199 7.25441 25.7922C7.25298 25.5594 7.2668 25.3269 7.2958 25.096C5.10692 24.0095 3.26238 22.3196 1.97243 20.219C0.682487 18.1185 -0.000960074 15.6918 1.01224e-06 13.2155V25.7845C0.00488201 27.7927 0.459881 29.7733 1.33044 31.5759C2.201 33.3785 3.46422 34.9558 5.02415 36.1878C6.58408 37.4199 8.39969 38.2743 10.3331 38.6863C12.2665 39.0982 14.2668 39.0569 16.1821 38.5653C18.0974 38.0738 19.8774 37.1449 21.3867 35.8494C22.8961 34.5539 24.0951 32.9257 24.8928 31.0886C25.6906 29.2515 26.0659 27.2537 25.9905 25.247C25.915 23.2403 25.3907 21.2775 24.4573 19.5077Z" fill="#0000D8"/>
<path d="M7.21679 0V1.38084C5.04901 2.47448 3.22478 4.16188 1.94969 6.25287C0.6746 8.34385 -0.000662369 10.7553 4.87539e-07 13.2155V0H7.21679Z" fill="#0000D8"/>
<path d="M18.723 25.0884C16.9417 25.9743 14.9849 26.4348 13.0019 26.4348C11.0189 26.4348 9.06205 25.9743 7.28076 25.0884C7.44575 23.6636 8.11945 22.35 9.17403 21.3968C10.2286 20.4435 11.5907 19.9169 13.0019 19.9169C14.4131 19.9169 15.7752 20.4435 16.8298 21.3968C17.8843 22.35 18.558 23.6636 18.723 25.0884Z" fill="#FFD400"/>
<path d="M26 13.2155C26.0091 15.4107 25.4788 17.5735 24.4573 19.5077C22.8556 16.4873 20.1614 14.2183 16.9441 13.1805C13.7268 12.1426 10.2386 12.4172 7.2168 13.9461V1.38084C9.19871 0.380066 11.3991 -0.0898259 13.6096 0.0156706C15.8202 0.121167 17.9676 0.798559 19.8486 1.98369C21.7295 3.16882 23.2818 4.82246 24.3582 6.78798C25.4347 8.75351 25.9998 10.9658 26 13.2155Z" fill="#0000D8"/>
</g>
<defs>
<clipPath id="clip0_10_480">
<rect width="26" height="39" fill="white"/>
</clipPath>
</defs>
</svg>
