<svg width="119" height="40" viewBox="0 0 119 40" fill="none" xmlns="http://www.w3.org/2000/svg">
<path d="M0.46 39.954V0.853999H14.858C15.042 0.853999 15.272 0.853999 15.456 0.853999C17.756 0.853999 19.78 1.176 21.574 1.866C23.276 2.51 24.702 3.43 25.898 4.672C28.106 6.972 29.302 10.376 29.44 14.378C29.486 16.586 29.164 18.518 28.52 20.22C27.876 21.876 26.91 23.302 25.622 24.452C24.38 25.602 22.816 26.476 20.976 27.074C19.182 27.672 17.158 27.994 14.904 28.04L11.868 28.178V40L0.46 39.954ZM13.432 10.284C13.34 10.284 13.248 10.284 13.202 10.284L10.81 10.33L10.994 18.978L13.386 18.886C15.042 18.84 16.284 18.426 17.158 17.69C18.032 16.954 18.446 15.85 18.4 14.47C18.4 13.596 18.17 12.4 17.204 11.526C16.376 10.698 15.088 10.284 13.432 10.284ZM43.9408 39.264L43.6188 39.402C42.3308 39.908 41.8708 40 40.4448 40C38.8348 40 37.2248 39.678 35.7528 39.08C34.2348 38.482 32.9468 37.608 31.8428 36.504C30.7848 35.492 29.9108 34.112 29.2668 32.548V32.502C28.6228 30.892 28.3008 29.282 28.3008 27.534C28.3008 24.084 29.5428 20.864 31.7508 18.518C34.0048 16.08 37.0868 14.746 40.4448 14.746C41.8708 14.746 42.4228 14.792 43.6188 15.252L43.9408 15.39V13.32H53.2328V40H43.9408V39.264ZM41.3188 23.578C40.3068 23.578 39.3868 23.946 38.7428 24.636C38.0068 25.418 37.5928 26.522 37.5928 27.81C37.5928 28.96 37.9608 30.018 38.6048 30.754C39.2948 31.398 40.2148 31.766 41.3188 31.766C42.3308 31.766 43.2508 31.398 43.9408 30.8V30.754C44.6308 29.972 44.9988 28.96 44.9988 27.81C44.9988 26.66 44.6308 25.51 43.9408 24.682C43.2508 23.946 42.3308 23.578 41.3188 23.578ZM72.0259 27.948V24.636L58.2259 24.728V28.04L72.0259 27.948ZM96.1055 40C96.0595 40 96.0595 40 96.0135 40H78.1195V0.853999L79.0395 0.899999C82.2135 0.899999 90.1255 0.899999 94.4495 0.899999C96.5655 0.899999 99.5555 1.268 101.948 2.878C103.098 3.66 103.926 4.626 104.524 5.776C105.168 7.018 105.49 8.536 105.49 10.192C105.49 13.872 104.156 16.172 103.052 17.414C102.73 17.782 102.316 18.15 101.948 18.426L101.258 18.978L102.086 19.346C102.822 19.668 103.466 20.036 104.018 20.542C106.916 22.842 107.56 26.338 107.56 28.822C107.56 31.352 107.008 33.468 105.904 35.216C104.984 36.596 103.742 37.7 102.132 38.528C99.3715 39.954 96.4275 40 96.1055 40ZM88.2395 30.708H93.5295C93.7595 30.708 94.4955 30.616 95.2315 30.11C96.2895 29.512 96.7955 28.546 96.7955 27.258C96.7955 26.016 96.2895 25.188 95.1855 24.682C94.2655 24.268 93.2995 24.222 92.9315 24.222C92.8855 24.222 92.8395 24.222 92.7935 24.222H88.2395V30.708ZM88.1475 16.08H92.6095C92.7935 16.08 93.3915 15.988 94.0355 15.62C94.6335 15.252 95.3235 14.516 95.3235 13.09C95.3235 11.986 94.8635 11.25 93.9435 10.836C93.2075 10.422 92.3795 10.376 92.1035 10.376C92.0575 10.376 92.0115 10.376 92.0115 10.376H91.9655H88.1475V16.08ZM118.526 39.862H108.452V13.366H118.526V39.862ZM118.572 5.868C118.572 8.674 116.318 10.928 113.512 10.928C110.706 10.928 108.452 8.674 108.452 5.868C108.452 3.108 110.706 0.807997 113.512 0.807997C116.318 0.807997 118.572 3.108 118.572 5.868Z" fill="#0000D8"/>
</svg>
