<svg width="24" height="24" viewBox="0 0 24 24" fill="none" xmlns="http://www.w3.org/2000/svg">
<rect width="24" height="24" rx="3" fill="#767676"/>
<path d="M18.2367 4.1167H5.76334C4.9989 4.11758 4.26603 4.42164 3.72549 4.96218C3.18495 5.50272 2.88089 6.2356 2.88001 7.00003V13.8634C2.87957 14.2424 2.9538 14.6179 3.09846 14.9683C3.24313 15.3187 3.45539 15.6372 3.72313 15.9055C3.99088 16.1739 4.30885 16.3869 4.65891 16.5324C5.00897 16.6778 5.38426 16.7529 5.76334 16.7534H9.79667L11.5267 19.57L11.5733 19.6367C11.6163 19.7115 11.6782 19.7736 11.7528 19.8169C11.8274 19.8601 11.9121 19.8828 11.9983 19.8828C12.0846 19.8828 12.1693 19.8601 12.2439 19.8169C12.3185 19.7736 12.3804 19.7115 12.4233 19.6367C12.4432 19.6146 12.46 19.5899 12.4733 19.5634L14.2033 16.75H18.2367C18.6158 16.7496 18.991 16.6745 19.3411 16.529C19.6912 16.3835 20.0091 16.1706 20.2769 15.9022C20.5446 15.6338 20.7569 15.3154 20.9015 14.965C21.0462 14.6146 21.1204 14.2391 21.12 13.86V7.00003C21.1191 6.2356 20.8151 5.50272 20.2745 4.96218C19.734 4.42164 19.0011 4.11758 18.2367 4.1167Z" fill="white"/>
<path d="M6.93337 9.38338C6.57955 9.41334 6.24829 9.5695 6.00003 9.82338V8.05005H4.8667V12.7167H6.00003V12.3334C6.10209 12.4876 6.24227 12.6128 6.40696 12.6969C6.57165 12.781 6.75527 12.8211 6.94003 12.8134C7.15797 12.8045 7.37195 12.7522 7.56949 12.6598C7.76703 12.5673 7.94419 12.4364 8.09064 12.2748C8.23708 12.1131 8.34988 11.9239 8.42246 11.7182C8.49503 11.5126 8.52594 11.2945 8.51337 11.0767C8.51337 11.0767 8.45337 9.37672 6.94003 9.37672L6.93337 9.38338ZM6.69337 11.8301C6.55162 11.8301 6.41306 11.788 6.29521 11.7093C6.17735 11.6305 6.0855 11.5186 6.03125 11.3876C5.97701 11.2567 5.96282 11.1126 5.99047 10.9736C6.01812 10.8345 6.08638 10.7069 6.18661 10.6066C6.28683 10.5064 6.41453 10.4381 6.55355 10.4105C6.69257 10.3828 6.83667 10.397 6.96762 10.4513C7.09858 10.5055 7.21051 10.5974 7.28925 10.7152C7.368 10.8331 7.41003 10.9716 7.41003 11.1134C7.40916 11.3032 7.33337 11.485 7.19916 11.6192C7.06495 11.7534 6.88317 11.8292 6.69337 11.8301Z" fill="#767676"/>
<path d="M8.86328 8.05664V9.13331C8.86328 9.13331 9.37328 9.10997 9.37328 10.06V12.8133H10.4499V9.81331C10.4499 9.81331 10.4966 8.06664 8.86328 8.06664" fill="#767676"/>
<path d="M13.08 9.39673C13.08 9.39673 11.2367 9.39673 11.2367 11.1201C11.2367 11.1201 11.1767 12.8201 13.08 12.8201C13.08 12.8201 14.9667 12.8201 14.9667 11.1201C14.9667 11.1201 15.03 9.39673 13.08 9.39673ZM13.08 11.8367C12.9383 11.8367 12.7997 11.7947 12.6818 11.7159C12.564 11.6372 12.4721 11.5253 12.4179 11.3943C12.3636 11.2634 12.3494 11.1193 12.3771 10.9802C12.4048 10.8412 12.473 10.7135 12.5732 10.6133C12.6735 10.5131 12.8012 10.4448 12.9402 10.4172C13.0792 10.3895 13.2233 10.4037 13.3543 10.4579C13.4852 10.5122 13.5971 10.604 13.6759 10.7219C13.7546 10.8398 13.7967 10.9783 13.7967 11.1201C13.7958 11.3099 13.72 11.4916 13.5858 11.6259C13.4516 11.7601 13.2698 11.8358 13.08 11.8367Z" fill="#767676"/>
<path d="M18.05 9.5101V9.82343C17.9343 9.68853 17.7905 9.58048 17.6287 9.5068C17.467 9.43311 17.2911 9.39556 17.1133 9.39676C17.1133 9.39676 15.5333 9.33343 15.5333 11.1101C15.5333 11.1101 15.5133 12.7768 17.07 12.7768C17.2558 12.7786 17.4397 12.7399 17.609 12.6633C17.7782 12.5868 17.9288 12.4742 18.05 12.3334V12.5934C18.05 12.5934 18.1267 13.4101 17.3367 13.4101H17.07V14.4101H17.5033C17.7279 14.4126 17.9504 14.3684 18.1569 14.2802C18.3634 14.1919 18.5492 14.0617 18.7025 13.8977C18.8559 13.7337 18.9734 13.5395 19.0476 13.3276C19.1217 13.1157 19.1509 12.8906 19.1333 12.6668V9.5101H18.05ZM17.3833 11.8434C17.2417 11.8428 17.1035 11.8002 16.9861 11.721C16.8687 11.6419 16.7773 11.5297 16.7236 11.3987C16.6699 11.2677 16.6562 11.1237 16.6842 10.9849C16.7122 10.8461 16.7807 10.7187 16.8811 10.6188C16.9814 10.5189 17.1092 10.451 17.2481 10.4236C17.387 10.3963 17.5309 10.4106 17.6617 10.465C17.7925 10.5193 17.9042 10.6112 17.9828 10.729C18.0614 10.8467 18.1033 10.9852 18.1033 11.1268C18.1033 11.2212 18.0847 11.3146 18.0485 11.4018C18.0122 11.489 17.9592 11.5681 17.8923 11.6347C17.8254 11.7013 17.746 11.754 17.6586 11.7898C17.5713 11.8257 17.4777 11.8439 17.3833 11.8434Z" fill="#767676"/>
</svg>
