<svg width="124" height="43" viewBox="0 0 124 43" fill="none" xmlns="http://www.w3.org/2000/svg">
<path d="M30.36 35.964V5.364H41.628C41.772 5.364 41.952 5.364 42.096 5.364C43.896 5.364 45.48 5.616 46.884 6.156C48.216 6.66 49.332 7.38 50.268 8.352C51.996 10.152 52.932 12.816 53.04 15.948C53.076 17.676 52.824 19.188 52.32 20.52C51.816 21.816 51.06 22.932 50.052 23.832C49.08 24.732 47.856 25.416 46.416 25.884C45.012 26.352 43.428 26.604 41.664 26.64L39.288 26.748V36L30.36 35.964ZM40.512 12.744C40.44 12.744 40.368 12.744 40.332 12.744L38.46 12.78L38.604 19.548L40.476 19.476C41.772 19.44 42.744 19.116 43.428 18.54C44.112 17.964 44.436 17.1 44.4 16.02C44.4 15.336 44.22 14.4 43.464 13.716C42.816 13.068 41.808 12.744 40.512 12.744ZM64.3884 35.424L64.1364 35.532C63.1284 35.928 62.7684 36 61.6524 36C60.3924 36 59.1324 35.748 57.9804 35.28C56.7924 34.812 55.7844 34.128 54.9204 33.264C54.0924 32.472 53.4084 31.392 52.9044 30.168V30.132C52.4004 28.872 52.1484 27.612 52.1484 26.244C52.1484 23.544 53.1204 21.024 54.8484 19.188C56.6124 17.28 59.0244 16.236 61.6524 16.236C62.7684 16.236 63.2004 16.272 64.1364 16.632L64.3884 16.74V15.12H71.6604V36H64.3884V35.424ZM62.3364 23.148C61.5444 23.148 60.8244 23.436 60.3204 23.976C59.7444 24.588 59.4204 25.452 59.4204 26.46C59.4204 27.36 59.7084 28.188 60.2124 28.764C60.7524 29.268 61.4724 29.556 62.3364 29.556C63.1284 29.556 63.8484 29.268 64.3884 28.8V28.764C64.9284 28.152 65.2164 27.36 65.2164 26.46C65.2164 25.56 64.9284 24.66 64.3884 24.012C63.8484 23.436 63.1284 23.148 62.3364 23.148ZM86.3681 26.568V23.976L75.5681 24.048V26.64L86.3681 26.568ZM105.213 36C105.177 36 105.177 36 105.141 36H91.137V5.364L91.857 5.4C94.341 5.4 100.533 5.4 103.917 5.4C105.573 5.4 107.913 5.688 109.785 6.948C110.685 7.56 111.333 8.316 111.801 9.216C112.305 10.188 112.557 11.376 112.557 12.672C112.557 15.552 111.513 17.352 110.649 18.324C110.397 18.612 110.073 18.9 109.785 19.116L109.245 19.548L109.893 19.836C110.469 20.088 110.973 20.376 111.405 20.772C113.673 22.572 114.177 25.308 114.177 27.252C114.177 29.232 113.745 30.888 112.881 32.256C112.161 33.336 111.189 34.2 109.929 34.848C107.769 35.964 105.465 36 105.213 36ZM99.057 28.728H103.197C103.377 28.728 103.953 28.656 104.529 28.26C105.357 27.792 105.753 27.036 105.753 26.028C105.753 25.056 105.357 24.408 104.493 24.012C103.773 23.688 103.017 23.652 102.729 23.652C102.693 23.652 102.657 23.652 102.621 23.652H99.057V28.728ZM98.985 17.28H102.477C102.621 17.28 103.089 17.208 103.593 16.92C104.061 16.632 104.601 16.056 104.601 14.94C104.601 14.076 104.241 13.5 103.521 13.176C102.945 12.852 102.297 12.816 102.081 12.816C102.045 12.816 102.009 12.816 102.009 12.816H101.973H98.985V17.28ZM122.76 35.892H114.876V15.156H122.76V35.892ZM122.796 9.288C122.796 11.484 121.032 13.248 118.836 13.248C116.64 13.248 114.876 11.484 114.876 9.288C114.876 7.128 116.64 5.328 118.836 5.328C121.032 5.328 122.796 7.128 122.796 9.288Z" fill="#0000D8"/>
<g clip-path="url(#clip0_173_857)">
<path d="M18.8133 21.0059C17.8206 22.8677 16.2832 24.3699 14.4139 25.3046C14.4348 25.4824 14.4454 25.6612 14.4457 25.8402C14.4162 27.0153 13.9362 28.1323 13.1081 28.9528C12.2801 29.7734 11.1694 30.2326 10.013 30.2326C8.85663 30.2326 7.74599 29.7734 6.91791 28.9528C6.08984 28.1323 5.60986 27.0153 5.58032 25.8402C5.57921 25.6611 5.58985 25.4822 5.61216 25.3046C3.9284 24.4688 2.50952 23.1689 1.51726 21.5531C0.52499 19.9373 -0.000738519 18.0706 7.78645e-07 16.1658V25.8343C0.00375539 27.379 0.353755 28.9025 1.02341 30.2892C1.69307 31.6758 2.66478 32.8891 3.86473 33.8368C5.06467 34.7845 6.4613 35.4418 7.94853 35.7587C9.43575 36.0756 10.9745 36.0438 12.4478 35.6656C13.9211 35.2875 15.2903 34.573 16.4513 33.5765C17.6123 32.5799 18.5347 31.3275 19.1483 29.9143C19.762 28.5011 20.0507 26.9644 19.9927 25.4208C19.9346 23.8772 19.5313 22.3673 18.8133 21.0059Z" fill="#0000D8"/>
<path d="M5.55138 6V7.06218C3.88385 7.90345 2.4806 9.20144 1.49976 10.8099C0.518923 12.4183 -0.000509514 14.2733 3.7503e-07 16.1658V6H5.55138Z" fill="#0000D8"/>
<path d="M14.4023 25.2987C13.0321 25.9802 11.5269 26.3344 10.0015 26.3344C8.47605 26.3344 6.9708 25.9802 5.60059 25.2987C5.7275 24.2028 6.24573 23.1923 7.05694 22.459C7.86816 21.7257 8.91593 21.3207 10.0015 21.3207C11.087 21.3207 12.1347 21.7257 12.946 22.459C13.7572 23.1923 14.2754 24.2028 14.4023 25.2987Z" fill="#FFD400"/>
<path d="M20 16.1657C20.007 17.8544 19.5991 19.5181 18.8133 21.0059C17.5812 18.6825 15.5087 16.9372 13.0339 16.1388C10.5591 15.3405 7.87585 15.5516 5.55139 16.7277V7.06217C7.07594 6.29234 8.76857 5.93089 10.469 6.01204C12.1694 6.09319 13.8212 6.61426 15.2681 7.5259C16.715 8.43754 17.9091 9.70957 18.7371 11.2215C19.5652 12.7335 19.9999 14.4353 20 16.1657Z" fill="#0000D8"/>
</g>
<defs>
<clipPath id="clip0_173_857">
<rect width="20" height="30" fill="white" transform="translate(0 6)"/>
</clipPath>
</defs>
</svg>
