<svg width="24" height="24" viewBox="0 0 24 24" fill="none" xmlns="http://www.w3.org/2000/svg">
<rect width="24" height="24" rx="3" fill="#767676"/>
<path d="M14.6918 5H9.31136C8.16869 5.00252 7.07355 5.45756 6.26555 6.26555C5.45756 7.07355 5.00252 8.16869 5 9.31136V14.6918C5.00336 15.8339 5.45877 16.9283 6.26667 17.7356C7.07458 18.5429 8.16924 18.9975 9.31136 19H14.6918C15.8334 18.9966 16.9272 18.5417 17.7345 17.7345C18.5417 16.9272 18.9966 15.8334 19 14.6918V9.31136C18.9975 8.16924 18.5429 7.07458 17.7356 6.26667C16.9283 5.45877 15.8339 5.00336 14.6918 5ZM17.6636 14.1732C17.6636 15.1014 17.2949 15.9917 16.6385 16.6481C15.9821 17.3044 15.0919 17.6732 14.1636 17.6732H9.82682C8.89856 17.6732 8.00832 17.3044 7.35194 16.6481C6.69557 15.9917 6.32682 15.1014 6.32682 14.1732V9.82682C6.32682 8.89856 6.69557 8.00832 7.35194 7.35194C8.00832 6.69557 8.89856 6.32682 9.82682 6.32682H14.1732C15.1014 6.32682 15.9917 6.69557 16.6481 7.35194C17.3044 8.00832 17.6732 8.89856 17.6732 9.82682L17.6636 14.1732Z" fill="white"/>
<path d="M12.0034 8C11.2122 7.99932 10.4385 8.23334 9.78023 8.67245C9.12198 9.11156 8.60875 9.73603 8.30547 10.4669C8.00219 11.1977 7.92249 12.0021 8.07644 12.7782C8.23039 13.5544 8.61108 14.2675 9.17036 14.8272C9.72963 15.387 10.4424 15.7683 11.2184 15.9229C11.9944 16.0775 12.7988 15.9985 13.5299 15.6958C14.261 15.3932 14.886 14.8805 15.3256 14.2226C15.7653 13.5648 16 12.7913 16 12C16 10.9397 15.579 9.92284 14.8296 9.17279C14.0802 8.42275 13.0637 8.00091 12.0034 8ZM12.0034 14.4048C11.5265 14.4048 11.0602 14.2634 10.6636 13.9984C10.267 13.7334 9.95785 13.3567 9.77531 12.916C9.59278 12.4754 9.54502 11.9904 9.63807 11.5226C9.73113 11.0548 9.96082 10.6251 10.2981 10.2878C10.6354 9.95049 11.0651 9.72079 11.5329 9.62774C12.0008 9.53468 12.4857 9.58244 12.9264 9.76498C13.3671 9.94751 13.7437 10.2566 14.0087 10.6532C14.2737 11.0498 14.4152 11.5161 14.4152 11.9931C14.4152 12.6327 14.1611 13.2462 13.7088 13.6984C13.2565 14.1507 12.6431 14.4048 12.0034 14.4048Z" fill="white"/>
<path d="M16.9999 7.98341C17.0032 8.18185 16.9473 8.37679 16.8395 8.5434C16.7316 8.71002 16.5766 8.84077 16.3942 8.91902C16.2118 8.99726 16.0103 9.01945 15.8152 8.98277C15.6201 8.94609 15.4404 8.8522 15.2989 8.71304C15.1573 8.57389 15.0604 8.39577 15.0205 8.20136C14.9805 8.00695 14.9993 7.80505 15.0745 7.62136C15.1497 7.43768 15.2778 7.28051 15.4426 7.16989C15.6074 7.05926 15.8014 7.00017 15.9999 7.00014C16.1304 6.99793 16.2601 7.02173 16.3813 7.07015C16.5025 7.11857 16.6129 7.19065 16.706 7.28217C16.7991 7.3737 16.873 7.48284 16.9234 7.60324C16.9739 7.72363 16.9999 7.85287 16.9999 7.98341Z" fill="white"/>
</svg>
